<?xml version="1.0" encoding="UTF-8" standalone="no"?><!DOCTYPE svg PUBLIC "-//W3C//DTD SVG 1.1//EN" "http://www.w3.org/Graphics/SVG/1.1/DTD/svg11.dtd"><!-- Generated by graphviz version 2.40.1 (20161225.0304)
 --><!-- Title: G Pages: 1 --><svg xmlns="http://www.w3.org/2000/svg" xmlns:xlink="http://www.w3.org/1999/xlink" width="812pt" height="474pt" viewBox="0.00 0.00 812.00 473.60">
<g id="graph0" class="graph" transform="scale(1 1) rotate(0) translate(4 469.6)">
<title>G</title>
<polygon fill="#ffffff" stroke="transparent" points="-4,4 -4,-469.6 808,-469.6 808,4 -4,4"/>
<g id="clust1" class="cluster">
<title>cluster0</title>
<polygon fill="none" stroke="#000000" points="406,-308.8 406,-457.6 626,-457.6 626,-308.8 406,-308.8"/>
<text text-anchor="middle" x="516" y="-441" font-family="Times,serif" font-size="14.00" fill="#000000">StreamingDataset</text>
</g>
<g id="clust2" class="cluster">
<title>cluster1</title>
<polygon fill="none" stroke="#000000" points="178,-308.8 178,-457.6 398,-457.6 398,-308.8 178,-308.8"/>
<text text-anchor="middle" x="288" y="-441" font-family="Times,serif" font-size="14.00" fill="#000000">IterableDataset</text>
</g>
<g id="clust3" class="cluster">
<title>cluster2</title>
<polygon fill="none" stroke="#000000" points="8,-8 8,-300.8 796,-300.8 796,-8 8,-8"/>
<text text-anchor="middle" x="402" y="-284.2" font-family="Times,serif" font-size="14.00" fill="#000000">DataLoader</text>
</g>
<!-- sc0 -->
<g id="node1" class="node">
<title>sc0</title>
<ellipse fill="none" stroke="#000000" cx="516" cy="-334.8" rx="102.4004" ry="18"/>
<text text-anchor="middle" x="516" y="-330.6" font-family="Times,serif" font-size="14.00" fill="#000000">PersiaBatchDataSender</text>
</g>
<!-- r0 -->
<g id="node5" class="node">
<title>r0</title>
<ellipse fill="none" stroke="#000000" cx="402" cy="-250" rx="109.9015" ry="18"/>
<text text-anchor="middle" x="402" y="-245.8" font-family="Times,serif" font-size="14.00" fill="#000000">PersiaBatchDataReceiver</text>
</g>
<!-- sc0&#45;&gt;r0 -->
<g id="edge18" class="edge">
<title>sc0-&gt;r0</title>
<path fill="none" stroke="#000000" d="M492.3791,-317.2294C475.5255,-304.6927 452.6607,-287.6844 434.1461,-273.9122"/>
<polygon fill="#000000" stroke="#000000" points="436.0954,-271.0001 425.9828,-267.8399 431.9175,-276.6166 436.0954,-271.0001"/>
</g>
<!-- df -->
<g id="node2" class="node">
<title>df</title>
<ellipse fill="none" stroke="#000000" cx="516" cy="-406.8" rx="101.2989" ry="18"/>
<text text-anchor="middle" x="516" y="-402.6" font-family="Times,serif" font-size="14.00" fill="#000000">RPC DataFlow Service</text>
</g>
<!-- df&#45;&gt;sc0 -->
<g id="edge1" class="edge">
<title>df-&gt;sc0</title>
<path fill="none" stroke="#000000" d="M516,-388.6314C516,-380.931 516,-371.7743 516,-363.2166"/>
<polygon fill="#000000" stroke="#000000" points="519.5001,-363.2132 516,-353.2133 512.5001,-363.2133 519.5001,-363.2132"/>
</g>
<!-- iter -->
<g id="node3" class="node">
<title>iter</title>
<ellipse fill="none" stroke="#000000" cx="288" cy="-406.8" rx="93.1465" ry="18"/>
<text text-anchor="middle" x="288" y="-402.6" font-family="Times,serif" font-size="14.00" fill="#000000">Iterable[PersiaBatch]</text>
</g>
<!-- sc1 -->
<g id="node4" class="node">
<title>sc1</title>
<ellipse fill="none" stroke="#000000" cx="288" cy="-334.8" rx="102.4004" ry="18"/>
<text text-anchor="middle" x="288" y="-330.6" font-family="Times,serif" font-size="14.00" fill="#000000">PersiaBatchDataSender</text>
</g>
<!-- iter&#45;&gt;sc1 -->
<g id="edge2" class="edge">
<title>iter-&gt;sc1</title>
<path fill="none" stroke="#000000" d="M288,-388.6314C288,-380.931 288,-371.7743 288,-363.2166"/>
<polygon fill="#000000" stroke="#000000" points="291.5001,-363.2132 288,-353.2133 284.5001,-363.2133 291.5001,-363.2132"/>
</g>
<!-- sc1&#45;&gt;r0 -->
<g id="edge19" class="edge">
<title>sc1-&gt;r0</title>
<path fill="none" stroke="#000000" d="M311.6209,-317.2294C328.4745,-304.6927 351.3393,-287.6844 369.8539,-273.9122"/>
<polygon fill="#000000" stroke="#000000" points="372.0825,-276.6166 378.0172,-267.8399 367.9046,-271.0001 372.0825,-276.6166"/>
</g>
<!-- l0 -->
<g id="node7" class="node">
<title>l0</title>
<ellipse fill="none" stroke="#000000" cx="402" cy="-178" rx="122.7084" ry="18"/>
<text text-anchor="middle" x="402" y="-173.8" font-family="Times,serif" font-size="14.00" fill="#000000">lookup_embedding_worker0</text>
</g>
<!-- r0&#45;&gt;l0 -->
<g id="edge3" class="edge">
<title>r0-&gt;l0</title>
<path fill="none" stroke="#000000" d="M402,-231.8314C402,-224.131 402,-214.9743 402,-206.4166"/>
<polygon fill="#000000" stroke="#000000" points="405.5001,-206.4132 402,-196.4133 398.5001,-206.4133 405.5001,-206.4132"/>
</g>
<!-- l1 -->
<g id="node8" class="node">
<title>l1</title>
<ellipse fill="none" stroke="#000000" cx="665" cy="-178" rx="122.7084" ry="18"/>
<text text-anchor="middle" x="665" y="-173.8" font-family="Times,serif" font-size="14.00" fill="#000000">lookup_embedding_worker1</text>
</g>
<!-- r0&#45;&gt;l1 -->
<g id="edge4" class="edge">
<title>r0-&gt;l1</title>
<path fill="none" stroke="#000000" d="M458.4201,-234.5542C499.0277,-223.4373 554.0004,-208.3877 597.0284,-196.6082"/>
<polygon fill="#000000" stroke="#000000" points="598.1326,-199.9348 606.8535,-193.9184 596.2842,-193.1832 598.1326,-199.9348"/>
</g>
<!-- l2 -->
<g id="node9" class="node">
<title>l2</title>
<ellipse fill="none" stroke="#000000" cx="139" cy="-178" rx="122.7084" ry="18"/>
<text text-anchor="middle" x="139" y="-173.8" font-family="Times,serif" font-size="14.00" fill="#000000">lookup_embedding_worker2</text>
</g>
<!-- r0&#45;&gt;l2 -->
<g id="edge5" class="edge">
<title>r0-&gt;l2</title>
<path fill="none" stroke="#000000" d="M345.5799,-234.5542C304.9723,-223.4373 249.9996,-208.3877 206.9716,-196.6082"/>
<polygon fill="#000000" stroke="#000000" points="207.7158,-193.1832 197.1465,-193.9184 205.8674,-199.9348 207.7158,-193.1832"/>
</g>
<!-- output -->
<g id="node6" class="node">
<title>output</title>
<ellipse fill="none" stroke="#000000" cx="402" cy="-34" rx="70.0867" ry="18"/>
<text text-anchor="middle" x="402" y="-29.8" font-family="Times,serif" font-size="14.00" fill="#000000">OutputChannel</text>
</g>
<!-- p0 -->
<g id="node10" class="node">
<title>p0</title>
<ellipse fill="none" stroke="#000000" cx="402" cy="-106" rx="93.1813" ry="18"/>
<text text-anchor="middle" x="402" y="-101.8" font-family="Times,serif" font-size="14.00" fill="#000000">postprocess_worker0</text>
</g>
<!-- l0&#45;&gt;p0 -->
<g id="edge6" class="edge">
<title>l0-&gt;p0</title>
<path fill="none" stroke="#000000" d="M402,-159.8314C402,-152.131 402,-142.9743 402,-134.4166"/>
<polygon fill="#000000" stroke="#000000" points="405.5001,-134.4132 402,-124.4133 398.5001,-134.4133 405.5001,-134.4132"/>
</g>
<!-- p1 -->
<g id="node11" class="node">
<title>p1</title>
<ellipse fill="none" stroke="#000000" cx="606" cy="-106" rx="93.1813" ry="18"/>
<text text-anchor="middle" x="606" y="-101.8" font-family="Times,serif" font-size="14.00" fill="#000000">postprocess_worker1</text>
</g>
<!-- l0&#45;&gt;p1 -->
<g id="edge7" class="edge">
<title>l0-&gt;p1</title>
<path fill="none" stroke="#000000" d="M449.3145,-161.3008C479.8215,-150.5336 519.5945,-136.496 551.4344,-125.2585"/>
<polygon fill="#000000" stroke="#000000" points="552.777,-128.4963 561.042,-121.8675 550.4472,-121.8953 552.777,-128.4963"/>
</g>
<!-- p2 -->
<g id="node12" class="node">
<title>p2</title>
<ellipse fill="none" stroke="#000000" cx="198" cy="-106" rx="93.1813" ry="18"/>
<text text-anchor="middle" x="198" y="-101.8" font-family="Times,serif" font-size="14.00" fill="#000000">postprocess_worker2</text>
</g>
<!-- l0&#45;&gt;p2 -->
<g id="edge8" class="edge">
<title>l0-&gt;p2</title>
<path fill="none" stroke="#000000" d="M354.6855,-161.3008C324.1785,-150.5336 284.4055,-136.496 252.5656,-125.2585"/>
<polygon fill="#000000" stroke="#000000" points="253.5528,-121.8953 242.958,-121.8675 251.223,-128.4963 253.5528,-121.8953"/>
</g>
<!-- l1&#45;&gt;p0 -->
<g id="edge9" class="edge">
<title>l1-&gt;p0</title>
<path fill="none" stroke="#000000" d="M606.958,-162.1102C565.1369,-150.661 508.7209,-135.2164 465.6653,-123.4293"/>
<polygon fill="#000000" stroke="#000000" points="466.4296,-120.0098 455.8603,-120.745 464.5812,-126.7614 466.4296,-120.0098"/>
</g>
<!-- l1&#45;&gt;p1 -->
<g id="edge10" class="edge">
<title>l1-&gt;p1</title>
<path fill="none" stroke="#000000" d="M650.1118,-159.8314C643.1414,-151.3251 634.7149,-141.0419 627.1023,-131.752"/>
<polygon fill="#000000" stroke="#000000" points="629.7245,-129.4298 620.679,-123.9134 624.3101,-133.8666 629.7245,-129.4298"/>
</g>
<!-- l1&#45;&gt;p2 -->
<g id="edge11" class="edge">
<title>l1-&gt;p2</title>
<path fill="none" stroke="#000000" d="M576.014,-165.5397C502.0425,-155.0127 394.0571,-139.2538 300,-124 292.3245,-122.7552 284.3317,-121.4174 276.3478,-120.0534"/>
<polygon fill="#000000" stroke="#000000" points="276.7132,-116.5649 266.2643,-118.3169 275.5251,-123.4634 276.7132,-116.5649"/>
</g>
<!-- l2&#45;&gt;p0 -->
<g id="edge12" class="edge">
<title>l2-&gt;p0</title>
<path fill="none" stroke="#000000" d="M197.042,-162.1102C238.8631,-150.661 295.2791,-135.2164 338.3347,-123.4293"/>
<polygon fill="#000000" stroke="#000000" points="339.4188,-126.7614 348.1397,-120.745 337.5704,-120.0098 339.4188,-126.7614"/>
</g>
<!-- l2&#45;&gt;p1 -->
<g id="edge13" class="edge">
<title>l2-&gt;p1</title>
<path fill="none" stroke="#000000" d="M227.986,-165.5397C301.9575,-155.0127 409.9429,-139.2538 504,-124 511.6755,-122.7552 519.6683,-121.4174 527.6522,-120.0534"/>
<polygon fill="#000000" stroke="#000000" points="528.4749,-123.4634 537.7357,-118.3169 527.2868,-116.5649 528.4749,-123.4634"/>
</g>
<!-- l2&#45;&gt;p2 -->
<g id="edge14" class="edge">
<title>l2-&gt;p2</title>
<path fill="none" stroke="#000000" d="M153.8882,-159.8314C160.8586,-151.3251 169.2851,-141.0419 176.8977,-131.752"/>
<polygon fill="#000000" stroke="#000000" points="179.6899,-133.8666 183.321,-123.9134 174.2755,-129.4298 179.6899,-133.8666"/>
</g>
<!-- p0&#45;&gt;output -->
<g id="edge15" class="edge">
<title>p0-&gt;output</title>
<path fill="none" stroke="#000000" d="M402,-87.8314C402,-80.131 402,-70.9743 402,-62.4166"/>
<polygon fill="#000000" stroke="#000000" points="405.5001,-62.4132 402,-52.4133 398.5001,-62.4133 405.5001,-62.4132"/>
</g>
<!-- p1&#45;&gt;output -->
<g id="edge16" class="edge">
<title>p1-&gt;output</title>
<path fill="none" stroke="#000000" d="M561.2313,-90.1993C529.3133,-78.9341 486.3408,-63.7673 453.0822,-52.029"/>
<polygon fill="#000000" stroke="#000000" points="454.1318,-48.6879 443.537,-48.6601 451.802,-55.2888 454.1318,-48.6879"/>
</g>
<!-- p2&#45;&gt;output -->
<g id="edge17" class="edge">
<title>p2-&gt;output</title>
<path fill="none" stroke="#000000" d="M242.7687,-90.1993C274.6867,-78.9341 317.6592,-63.7673 350.9178,-52.029"/>
<polygon fill="#000000" stroke="#000000" points="352.198,-55.2888 360.463,-48.6601 349.8682,-48.6879 352.198,-55.2888"/>
</g>
</g>
</svg>